# xmcd
#
# Track frame offsets: 
#        150
#        21125
#        37913
#        48401
#        68082
#        80293
#        91746
#        106384
#        123650
#
# Disc length: 1829 seconds
#
# Revision: 3
# Processed by: cddbd v1.5.2PL0 Copyright (c) Steve Scherf et al.
# Submitted via: ExactAudioCopy v1.0b1
#
DISCID=67072309
DTITLE=David Allan Coe - The Perfect Country And Western Song
DYEAR=1996
DGENRE=Country
TTITLE0=You Never Even Called Me By My Name
TTITLE1=Long Black Veil
TTITLE2=Would You Lay With Me
TTITLE3=Room Full Of Roses
TTITLE4=Take This Job And Shove It
TTITLE5=Papa Loved Mama
TTITLE6=Just Because
TTITLE7=Please Come To Boston
TTITLE8=I Can't Help It
EXTD=
EXTT0=
EXTT1=
EXTT2=
EXTT3=
EXTT4=
EXTT5=
EXTT6=
EXTT7=
EXTT8=
PLAYORDER=
